<?xml version="1.0" encoding="UTF-8" standalone="no"?><!-- Generator: Gravit.io -->
<svg xmlns="http://www.w3.org/2000/svg" xmlns:xlink="http://www.w3.org/1999/xlink" style="isolation:isolate" viewBox="0 0 1080 1080" width="1080pt" height="1080pt">
<defs><clipPath id="_clipPath_ioYSOdYwhVbPnlVjWu75mi8n3csiTCEQ">
<rect width="1080" height="1080"/></clipPath></defs><g clip-path="url(#_clipPath_ioYSOdYwhVbPnlVjWu75mi8n3csiTCEQ)">
<path d=" M 210.025 705 L 45.025 540 L 45.025 540 L 210.025 375 L 210.025 375 L 375 375 L 375 210.025 L 540 45.025 L 705 210.025 L 705 375 L 869.975 375 L 869.975 375 L 1034.975 540 L 869.975 705 L 869.975 705 L 705 705 L 705 869.975 L 540 1034.975 L 375 869.975 L 375 705 L 210.025 705 Z  M 210 540 L 375 375 L 540 210 L 705 375 L 870 540 L 705 705 L 540 870 L 375 705 L 210 540 L 210 540 L 210 540 L 210 540 L 210 540 Z " fill-rule="evenodd" fill="#FFD048"/>
<path d=" M 307 403 L 218 403 L 81 540 L 218 677 L 307 677 L 170 540 L 307 403 Z  M 403 307 L 403 218 L 540 81 L 677 218 L 676.964 218 L 676.964 306.964 L 540 170 L 403 307 Z  M 773 403 L 861.964 403 L 861.964 402.964 L 999 540 L 862 677 L 773 677 L 910 540 L 773 403 Z  M 677 773 L 677 862 L 540 999 L 403 862 L 403 773 L 540 910 L 677 773 Z " fill-rule="evenodd" fill="#01A19D"/>
<rect x="506.5" y="440" width="67" height="200" transform="matrix(0.5,-0.866,0.866,0.5,-197.654,737.654)" fill="#FFD048"/>
<path d=" M 552.3 412.25 L 552.3 364.357 L 668.967 364.357 L 668.967 411.783 C 654.615 414.7 643.8 427.401 643.8 442.608 L 643.8 636.099 C 643.8 651.306 654.615 664.007 668.967 666.924 L 668.967 714.35 L 552.3 714.35 L 552.3 666.457 C 565.662 662.828 575.5 650.603 575.5 636.099 L 575.5 442.608 C 575.5 428.104 565.662 415.879 552.3 412.25 Z " fill-rule="evenodd" fill="#FFD048"/>
<path d=" M 413.3 412.25 L 413.3 364.357 L 529.967 364.357 L 529.967 411.783 C 515.615 414.7 504.8 427.401 504.8 442.608 L 504.8 636.099 C 504.8 651.306 515.615 664.007 529.967 666.924 L 529.967 714.35 L 413.3 714.35 L 413.3 666.457 C 426.662 662.828 436.5 650.603 436.5 636.099 L 436.5 442.608 C 436.5 428.104 426.662 415.879 413.3 412.25 Z " fill-rule="evenodd" fill="#FFD048"/>
<g style="isolation:isolate"><path d=" M 521.5 674.04 L 521.5 704.438 L 421.5 704.438 L 421.5 674.04 C 435.674 671.706 446.5 659.384 446.5 644.554 L 446.5 434.321 C 446.5 419.491 435.674 407.169 421.5 404.835 L 421.5 374.438 L 521.5 374.438 L 521.5 404.835 C 507.326 407.169 496.5 419.491 496.5 434.321 L 496.5 644.554 C 496.5 659.384 507.326 671.706 521.5 674.04 Z " fill-rule="evenodd" fill="#01A19D"/>
<path d=" M 561.5 405.502 L 561.5 375.104 L 661.5 375.104 L 661.5 405.502 C 647.326 407.836 636.5 420.157 636.5 434.988 L 636.5 645.221 C 636.5 660.051 647.326 672.373 661.5 674.706 L 661.5 705.104 L 561.5 705.104 L 561.5 674.706 C 575.674 672.373 586.5 660.051 586.5 645.221 L 586.5 434.988 C 586.5 420.157 575.674 407.836 561.5 405.502 Z " fill-rule="evenodd" fill="#01A19D"/>
<rect x="515" y="455.924" width="50" height="168.152" transform="matrix(0.5,-0.866,0.866,0.5,-197.654,737.654)" fill="#01A19D"/></g></g>
</svg>